<svg version="1.1" id="Layer_1" xmlns="http://www.w3.org/2000/svg" xmlns:xlink="http://www.w3.org/1999/xlink" x="0px" y="0px"
	 width="100%" viewBox="0 0 500 288" enable-background="new 0 0 500 288" xml:space="preserve">
<path fill="#010000" opacity="1.000000" stroke="none" 
	d="
M377.000000,289.000000 
	C251.373032,289.000000 126.246078,289.000000 1.059557,289.000000 
	C1.059557,193.070190 1.059557,97.140335 1.059557,1.105236 
	C167.543579,1.105236 334.087250,1.105236 500.815460,1.105236 
	C500.815460,96.999702 500.815460,192.999832 500.815460,289.000000 
	C459.807068,289.000000 418.653534,289.000000 377.000000,289.000000 
M319.112976,179.392059 
	C325.096649,188.266434 331.080292,197.140808 337.280121,206.335754 
	C344.933472,198.034119 352.021057,190.346176 359.896423,182.802414 
	C370.795349,186.172089 381.715942,186.226044 391.853241,180.865707 
	C403.092896,174.922485 412.878876,167.303070 413.899628,152.645340 
	C414.139160,152.625061 414.378662,152.604767 414.618195,152.584473 
	C414.619934,152.698532 414.621704,152.812576 414.623474,152.926636 
	C414.377502,152.924393 414.131531,152.922150 414.227478,153.641174 
	C412.675842,156.330170 411.208130,159.071808 409.558838,161.699509 
	C399.582275,177.594574 380.033356,183.325821 366.374084,174.121124 
	C372.949921,160.823517 379.525787,147.525894 387.015045,134.077026 
	C394.267029,134.077026 401.519012,134.077026 408.783508,134.077026 
	C407.951385,115.652161 398.558197,104.753464 378.704681,98.383545 
	C370.292114,92.701080 361.793365,87.141464 353.484833,81.310738 
	C335.784546,68.889061 318.260864,56.214100 300.478119,43.912804 
	C296.726105,41.317318 292.173035,39.879761 286.800171,37.348583 
	C286.800171,53.250816 286.800171,67.445816 286.800171,81.640808 
	C286.278381,81.699081 285.756592,81.757355 285.234802,81.815628 
	C284.488037,79.703255 283.594116,77.630089 283.018951,75.471985 
	C279.856079,63.605331 279.415344,51.500671 279.935730,39.307838 
	C280.106506,35.306400 281.568268,30.102047 279.642334,27.607296 
	C277.529510,24.870426 272.238586,24.438883 268.241394,23.331816 
	C254.654144,19.568695 241.042084,20.203445 226.789215,23.002857 
	C228.105515,34.539173 229.338867,45.574249 230.632645,56.602242 
	C231.405151,63.187069 232.458527,69.747108 232.943466,76.350777 
	C233.043137,77.708046 231.177750,79.209618 230.218094,80.644669 
	C229.021561,79.638260 227.328461,78.866104 226.722275,77.581177 
	C224.954361,73.833878 223.530167,69.914032 222.133743,66.003792 
	C217.839920,53.980278 213.621902,41.929699 209.124435,29.181032 
	C200.467880,31.828281 192.202362,34.186726 184.052307,36.892872 
	C174.712128,39.994186 174.577118,40.450394 178.896301,49.504517 
	C183.621002,59.408775 188.654999,69.169678 193.191483,79.157814 
	C195.555939,84.363762 194.317032,88.337059 190.730148,90.035713 
	C186.896301,91.851326 182.907166,90.132980 180.114487,85.260918 
	C176.474564,78.910706 173.016052,72.456444 169.368713,66.110596 
	C165.431976,59.261246 161.367462,52.485344 157.259369,45.508778 
	C155.661316,46.506828 154.669571,47.084663 153.720322,47.725468 
	C143.925797,54.337337 134.129623,60.946907 124.364395,67.601837 
	C123.566971,68.145279 122.678650,68.901314 122.363747,69.754593 
	C118.123840,81.243263 113.978310,92.766762 109.294197,104.735161 
	C104.556084,106.064476 108.359039,109.020988 107.749519,111.874550 
	C104.838142,120.216202 107.161102,126.462021 114.765076,131.168991 
	C117.603584,132.926086 119.672470,135.926483 121.731689,138.899582 
	C120.049408,140.228729 118.305077,141.487061 116.694832,142.898392 
	C105.582024,152.638519 103.352493,164.412903 110.210129,177.512802 
	C110.473824,177.693375 110.737518,177.873962 110.950096,178.036926 
	C110.950096,178.036926 110.947533,177.982941 110.838264,178.783951 
	C111.390686,180.695953 111.844490,182.643082 112.510651,184.514587 
	C119.987907,205.520950 132.949738,223.295593 146.121796,240.884354 
	C157.634338,256.257172 170.904633,269.253906 192.161606,269.781128 
	C188.375534,247.367508 184.493195,224.383957 180.610855,201.400391 
	C181.249191,201.076187 181.887527,200.751984 182.525864,200.427780 
	C184.643265,203.538864 187.327805,206.412323 188.752808,209.813522 
	C191.251755,215.778000 192.979187,222.065765 195.028809,228.218445 
	C199.432495,241.437622 203.835526,254.657043 208.367477,268.262634 
	C218.695374,264.886444 228.621231,261.661743 238.531982,258.391327 
	C242.161621,257.193573 247.148239,256.883820 248.965256,254.344177 
	C250.705246,251.912201 249.137009,247.112534 249.019806,243.353577 
	C249.004242,242.854218 249.009674,242.350052 248.940811,241.857117 
	C246.966019,227.718079 245.145569,213.554764 242.940628,199.451584 
	C241.606537,190.918549 239.538422,182.502441 238.070816,173.987152 
	C237.382126,169.991333 241.853546,163.202621 245.201904,163.220779 
	C249.851196,163.245987 249.089111,167.787125 250.413666,170.546524 
	C250.696487,171.135727 250.818878,171.813019 250.948593,172.463013 
	C254.656494,191.042862 258.374420,209.620758 262.047058,228.207581 
	C263.413788,235.124344 264.671478,242.062637 266.108521,249.678040 
	C286.524902,238.419159 307.200256,229.472549 324.369415,214.594955 
	C319.235229,204.335434 314.257477,194.388474 310.070648,184.111252 
	C312.963348,182.328949 315.856049,180.546646 319.112976,179.392059 
M90.572594,116.082100 
	C91.628578,115.022430 92.745483,114.016319 93.731247,112.894913 
	C105.395935,99.625275 100.243454,82.483086 83.208824,78.028778 
	C80.653137,77.360512 77.977730,76.824463 75.352356,76.799980 
	C54.876034,76.608978 34.398418,76.552879 13.921087,76.493744 
	C13.398527,76.492233 12.874691,76.932739 10.812077,77.856590 
	C18.572741,77.770401 20.472637,82.050117 21.405582,87.128532 
	C21.794342,89.244720 22.115280,91.410553 22.119616,93.554504 
	C22.169760,118.362534 22.266949,143.171539 22.082420,167.978302 
	C22.029814,175.050446 21.685379,182.445541 12.248815,184.527588 
	C33.570080,184.866837 54.515160,185.390701 75.418129,184.678528 
	C88.851540,184.220840 98.602821,174.558014 100.818878,161.891129 
	C103.277962,147.835068 97.236923,134.687714 85.477615,129.116806 
	C82.269211,127.596840 78.700508,126.837433 75.475471,125.787064 
	C80.292465,122.727898 85.162285,119.635178 90.572594,116.082100 
M448.138824,114.097794 
	C447.427979,114.774307 446.717133,115.450821 445.167419,116.925667 
	C445.167419,110.556335 445.167419,105.360764 445.167419,99.325668 
	C438.223969,106.705429 429.783264,108.558754 420.921936,110.041931 
	C429.789886,111.246925 430.568756,118.097786 430.748901,124.294220 
	C431.193604,139.592026 431.169373,154.918869 430.758820,170.218613 
	C430.591492,176.454224 429.612732,183.107224 421.327911,184.533020 
	C432.606781,184.533020 443.885681,184.533020 455.164551,184.533020 
	C447.812256,183.120361 446.226166,177.537552 446.048798,171.693848 
	C445.579437,156.229874 445.542358,140.751617 445.476593,125.278412 
	C445.470062,123.744492 446.096039,121.932030 447.036346,120.720726 
	C450.083923,116.794777 453.104645,112.759956 456.701996,109.367500 
	C463.783203,102.689659 470.644775,102.722122 477.897430,109.262115 
	C481.057007,112.111206 483.724640,115.505821 486.696625,118.740768 
	C488.059479,115.251991 489.601379,111.915604 490.592316,108.422913 
	C490.920349,107.266754 490.262177,105.109810 489.319122,104.427666 
	C481.537262,98.798828 472.797302,96.498016 464.089111,101.232681 
	C458.405365,104.322968 453.780060,109.360031 448.138824,114.097794 
z"/>
<path fill="#F7F7F7" opacity="1.000000" stroke="none" 
	d="
M90.302353,116.312286 
	C85.162285,119.635178 80.292465,122.727898 75.475471,125.787064 
	C78.700508,126.837433 82.269211,127.596840 85.477615,129.116806 
	C97.236923,134.687714 103.277962,147.835068 100.818878,161.891129 
	C98.602821,174.558014 88.851540,184.220840 75.418129,184.678528 
	C54.515160,185.390701 33.570080,184.866837 12.248815,184.527588 
	C21.685379,182.445541 22.029814,175.050446 22.082420,167.978302 
	C22.266949,143.171539 22.169760,118.362534 22.119616,93.554504 
	C22.115280,91.410553 21.794342,89.244720 21.405582,87.128532 
	C20.472637,82.050117 18.572741,77.770401 10.812077,77.856590 
	C12.874691,76.932739 13.398527,76.492233 13.921087,76.493744 
	C34.398418,76.552879 54.876034,76.608978 75.352356,76.799980 
	C77.977730,76.824463 80.653137,77.360512 83.208824,78.028778 
	C100.243454,82.483086 105.395935,99.625275 93.731247,112.894913 
	C92.745483,114.016319 91.628578,115.022430 90.302353,116.312286 
M60.506496,126.021973 
	C62.990074,124.360977 65.812592,123.040382 67.890190,120.971672 
	C73.001648,115.882080 79.036316,111.141701 82.399460,105.001068 
	C88.402954,94.039513 83.377251,83.398621 71.070152,81.122299 
	C60.280396,79.126625 49.083710,79.331024 37.840305,78.547852 
	C37.840305,100.281479 37.840305,120.846825 37.840305,141.209167 
	C45.316170,136.193161 52.606331,131.301758 60.506496,126.021973 
M37.455421,153.614853 
	C37.455421,163.004807 37.455421,172.394760 37.455421,182.072418 
	C45.192215,182.072418 52.343872,181.686005 59.440529,182.146744 
	C78.743187,183.399902 87.361031,166.981232 85.901001,152.454514 
	C84.247116,135.999023 70.024979,127.523857 54.854576,134.174301 
	C50.512196,136.077911 46.677315,139.157120 42.654072,141.765671 
	C38.720711,144.315948 36.557930,147.769867 37.455421,153.614853 
z"/>
<path fill="#F8F8F8" opacity="1.000000" stroke="none" 
	d="
M108.063194,111.196617 
	C108.359039,109.020988 104.556084,106.064476 109.912117,104.458817 
	C111.373161,103.781883 112.216286,103.381287 113.443596,102.989120 
	C124.080154,99.779182 134.565277,98.407425 145.301987,99.027573 
	C158.672241,99.799850 166.209930,105.284180 170.271164,118.050285 
	C172.324844,124.505859 173.399338,131.269196 175.005539,137.871735 
	C177.587753,148.486328 179.826538,159.211334 183.033676,169.636429 
	C184.801270,175.382187 188.331528,180.486298 196.966934,178.979584 
	C195.815002,180.983902 194.040161,181.898972 192.363754,182.968307 
	C186.260681,186.861252 176.818192,185.447449 172.361237,178.840454 
	C169.096786,174.001251 167.167908,168.196564 165.065262,162.662064 
	C163.783920,159.289352 163.302185,155.612823 162.394699,151.792435 
	C161.619370,152.361282 161.421997,152.430832 161.406113,152.529602 
	C161.275482,153.341660 161.220795,154.167313 161.065155,154.973785 
	C158.596237,167.767715 153.858139,178.994263 140.175674,183.468063 
	C131.575256,186.280197 123.129723,185.380081 114.875450,181.075897 
	C113.460487,179.880249 112.204010,178.931595 110.947533,177.982941 
	C110.947533,177.982941 110.950096,178.036926 110.964951,177.792786 
	C110.717850,177.365326 110.455894,177.182007 110.193939,176.998703 
	C103.352493,164.412903 105.582024,152.638519 116.694832,142.898392 
	C118.305077,141.487061 120.049408,140.228729 122.191322,138.534653 
	C123.414673,137.600311 124.178398,137.030914 125.277832,136.301819 
	C129.318909,133.606415 133.127029,131.206619 136.704834,128.502151 
	C141.694275,124.730644 145.867371,120.287659 147.289337,113.866631 
	C148.726715,107.375938 145.281174,101.853424 138.747833,102.298851 
	C133.882584,102.630547 128.723785,104.590164 124.522499,107.170769 
	C119.662582,110.155914 115.708755,114.616211 111.363983,118.433922 
	C111.082336,118.035164 110.620010,117.380585 110.156181,116.381409 
	C109.457512,114.423409 108.760353,112.810013 108.063194,111.196617 
M149.406342,123.695625 
	C146.472260,127.465996 143.780838,131.462738 140.534943,134.942230 
	C137.373566,138.331131 133.203720,140.827499 130.280197,144.377472 
	C126.863968,148.525772 123.468414,153.073517 121.619263,158.028427 
	C119.532402,163.620300 120.287170,169.702423 125.355843,174.004181 
	C130.248047,178.156189 135.950699,178.415909 141.754913,176.182144 
	C149.082306,173.362198 153.480362,167.672012 156.062943,160.530762 
	C159.827606,150.120865 160.227737,139.321976 158.346298,128.569824 
	C157.344620,122.845474 155.013947,117.353691 153.283127,111.756935 
	C152.911484,111.872711 152.539841,111.988487 152.168182,112.104256 
	C151.378082,115.745041 150.587967,119.385818 149.406342,123.695625 
z"/>
<path fill="#B80035" opacity="1.000000" stroke="none" 
	d="
M110.892899,178.383453 
	C112.204010,178.931595 113.460487,179.880249 114.962875,181.473434 
	C121.320511,200.759689 132.230942,216.773758 143.865295,232.150955 
	C151.231979,241.887589 160.018936,250.654129 168.871780,259.120850 
	C173.818100,263.851410 180.672348,265.375031 188.042511,265.010803 
	C184.159470,241.965134 180.364426,219.441757 176.346558,195.596008 
	C179.751419,196.802292 181.960876,197.309769 183.903992,198.326340 
	C189.223434,201.109283 191.165695,206.371201 192.941544,211.591919 
	C196.742966,222.767609 200.378265,233.999710 204.110199,245.199188 
	C206.191284,251.444504 208.329697,257.670715 210.514481,264.118652 
	C222.924515,260.026794 234.841782,256.097443 246.670914,252.197128 
	C246.059464,245.088760 245.733780,238.607834 244.896835,232.193619 
	C243.587036,222.155533 242.077377,212.137741 240.381027,202.157486 
	C238.710709,192.330582 236.400528,182.605103 234.964569,172.748672 
	C234.194336,167.461807 240.044800,160.577393 244.829330,159.917999 
	C248.956116,159.349258 251.385284,161.930206 253.460693,169.108398 
	C253.691116,169.905365 253.893127,170.712936 254.060226,171.525482 
	C257.374176,187.642227 260.728607,203.750854 263.969177,219.882370 
	C265.583954,227.920822 266.987640,236.001663 268.603882,244.692841 
	C286.648041,234.484909 305.124084,226.753098 320.492218,213.483093 
	C315.487366,203.755264 310.699982,194.450150 306.201965,185.056213 
	C307.420776,184.792114 308.350220,184.616821 309.279694,184.441528 
	C314.257477,194.388474 319.235229,204.335434 324.369415,214.594955 
	C307.200256,229.472549 286.524902,238.419159 266.108521,249.678040 
	C264.671478,242.062637 263.413788,235.124344 262.047058,228.207581 
	C258.374420,209.620758 254.656494,191.042862 250.948593,172.463013 
	C250.818878,171.813019 250.696487,171.135727 250.413666,170.546524 
	C249.089111,167.787125 249.851196,163.245987 245.201904,163.220779 
	C241.853546,163.202621 237.382126,169.991333 238.070816,173.987152 
	C239.538422,182.502441 241.606537,190.918549 242.940628,199.451584 
	C245.145569,213.554764 246.966019,227.718079 248.940811,241.857117 
	C249.009674,242.350052 249.004242,242.854218 249.019806,243.353577 
	C249.137009,247.112534 250.705246,251.912201 248.965256,254.344177 
	C247.148239,256.883820 242.161621,257.193573 238.531982,258.391327 
	C228.621231,261.661743 218.695374,264.886444 208.367477,268.262634 
	C203.835526,254.657043 199.432495,241.437622 195.028809,228.218445 
	C192.979187,222.065765 191.251755,215.778000 188.752808,209.813522 
	C187.327805,206.412323 184.643265,203.538864 182.525864,200.427780 
	C181.887527,200.751984 181.249191,201.076187 180.610855,201.400391 
	C184.493195,224.383957 188.375534,247.367508 192.161606,269.781128 
	C170.904633,269.253906 157.634338,256.257172 146.121796,240.884354 
	C132.949738,223.295593 119.987907,205.520950 112.510651,184.514587 
	C111.844490,182.643082 111.390686,180.695953 110.892899,178.383453 
z"/>
<path fill="#B60034" opacity="1.000000" stroke="none" 
	d="
M113.059402,102.980698 
	C112.216286,103.381287 111.373161,103.781883 110.169708,104.232048 
	C113.978310,92.766762 118.123840,81.243263 122.363747,69.754593 
	C122.678650,68.901314 123.566971,68.145279 124.364395,67.601837 
	C134.129623,60.946907 143.925797,54.337337 153.720322,47.725468 
	C154.669571,47.084663 155.661316,46.506828 157.259369,45.508778 
	C161.367462,52.485344 165.431976,59.261246 169.368713,66.110596 
	C173.016052,72.456444 176.474564,78.910706 180.114487,85.260918 
	C182.907166,90.132980 186.896301,91.851326 190.730148,90.035713 
	C194.317032,88.337059 195.555939,84.363762 193.191483,79.157814 
	C188.654999,69.169678 183.621002,59.408775 178.896301,49.504517 
	C174.577118,40.450394 174.712128,39.994186 184.052307,36.892872 
	C192.202362,34.186726 200.467880,31.828281 209.124435,29.181032 
	C213.621902,41.929699 217.839920,53.980278 222.133743,66.003792 
	C223.530167,69.914032 224.954361,73.833878 226.722275,77.581177 
	C227.328461,78.866104 229.021561,79.638260 230.218094,80.644669 
	C231.177750,79.209618 233.043137,77.708046 232.943466,76.350777 
	C232.458527,69.747108 231.405151,63.187069 230.632645,56.602242 
	C229.338867,45.574249 228.105515,34.539173 226.789215,23.002857 
	C241.042084,20.203445 254.654144,19.568695 268.241394,23.331816 
	C272.238586,24.438883 277.529510,24.870426 279.642334,27.607296 
	C281.568268,30.102047 280.106506,35.306400 279.935730,39.307838 
	C279.415344,51.500671 279.856079,63.605331 283.018951,75.471985 
	C283.594116,77.630089 284.488037,79.703255 285.234802,81.815628 
	C285.756592,81.757355 286.278381,81.699081 286.800171,81.640808 
	C286.800171,67.445816 286.800171,53.250816 286.800171,37.348583 
	C292.173035,39.879761 296.726105,41.317318 300.478119,43.912804 
	C318.260864,56.214100 335.784546,68.889061 353.484833,81.310738 
	C361.793365,87.141464 370.292114,92.701080 378.475922,98.715042 
	C376.582336,98.951279 374.917542,98.856026 373.020203,98.506683 
	C359.163788,88.977402 345.483521,79.783676 331.932007,70.403961 
	C318.542938,61.136719 305.283997,51.681545 290.871490,41.537041 
	C290.871490,51.692745 291.078522,60.009804 290.795227,68.310127 
	C290.620209,73.438782 289.841888,78.565582 289.004883,83.638847 
	C288.812225,84.806465 287.426880,86.275711 286.292145,86.618271 
	C285.505768,86.855659 283.759918,85.640602 283.227020,84.651840 
	C281.898987,82.187759 280.719696,79.561028 280.008942,76.860542 
	C276.281921,62.699665 275.393280,48.298275 277.161407,33.783329 
	C277.573181,30.403316 276.301453,29.092768 273.365387,28.065491 
	C260.493835,23.561914 247.400299,22.686840 233.977936,24.854305 
	C231.066544,25.324442 230.450287,26.566122 230.749725,29.165462 
	C231.416016,34.949413 231.759033,40.773964 232.539047,46.540680 
	C233.720108,55.272388 235.254120,63.956131 236.456085,72.685326 
	C237.161224,77.806465 234.412033,83.172058 230.760406,83.735077 
	C225.495239,84.546867 223.938873,80.381577 222.521484,76.663078 
	C219.856262,69.670944 217.521515,62.553490 214.997208,55.506836 
	C212.327805,48.055168 209.597595,40.625275 206.819122,32.979977 
	C198.922043,35.465351 191.669891,37.901287 184.321716,40.001202 
	C180.101227,41.207306 179.102997,42.998554 181.178207,47.125782 
	C186.407333,57.525589 191.509750,68.004829 196.180679,78.663582 
	C198.906281,84.883194 196.890518,90.322685 191.948166,92.846817 
	C186.849594,95.450729 181.165939,93.460312 177.562805,87.576683 
	C175.217773,83.747437 173.201645,79.718430 170.956879,75.825783 
	C165.995224,67.221771 160.982208,58.647354 155.869583,49.853489 
	C148.379669,55.010395 141.676773,60.335625 134.315430,64.495720 
	C126.831474,68.725113 122.391891,74.836990 119.749413,82.635078 
	C117.458305,89.396240 115.284859,96.197281 113.059402,102.980698 
z"/>
<path fill="#F7F7F7" opacity="1.000000" stroke="none" 
	d="
M373.252716,98.760773 
	C374.917542,98.856026 376.582336,98.951279 378.663818,98.993500 
	C398.558197,104.753464 407.951385,115.652161 408.783508,134.077026 
	C401.519012,134.077026 394.267029,134.077026 386.150757,134.082123 
	C384.463501,134.134232 383.640594,134.181229 382.367493,134.154251 
	C369.181763,134.080261 356.446167,134.080261 343.414307,134.080261 
	C344.576630,150.292725 349.591309,163.940323 363.556427,173.442383 
	C364.442078,174.015503 365.111786,174.295349 365.781464,174.575195 
	C380.033356,183.325821 399.582275,177.594574 409.558838,161.699509 
	C411.208130,159.071808 412.675842,156.330170 414.042786,153.311783 
	C413.858063,152.982391 413.789856,152.985580 413.789856,152.985580 
	C412.878876,167.303070 403.092896,174.922485 391.853241,180.865707 
	C381.715942,186.226044 370.795349,186.172089 359.254852,182.500458 
	C357.752441,181.921951 356.891632,181.645401 355.783203,181.198120 
	C341.229553,173.639694 332.302551,162.189804 331.052612,145.989822 
	C329.049713,120.030655 346.480377,100.865273 373.252716,98.760773 
M388.784332,131.123459 
	C390.561676,131.123459 392.339020,131.123459 394.865509,131.123459 
	C393.758575,127.494965 392.856354,124.537468 391.972473,120.934036 
	C391.325867,119.807434 390.679291,118.680832 389.940948,116.903786 
	C382.993500,105.485535 371.820221,100.456833 361.122314,103.933495 
	C350.769257,107.298096 343.355591,119.107040 344.266388,130.894562 
	C357.664124,130.894562 371.070343,130.894562 385.320160,131.079971 
	C386.171875,131.031006 387.023560,130.982040 388.784332,131.123459 
z"/>
<path fill="#FAFAFA" opacity="1.000000" stroke="none" 
	d="
M448.409729,113.811417 
	C453.780060,109.360031 458.405365,104.322968 464.089111,101.232681 
	C472.797302,96.498016 481.537262,98.798828 489.319122,104.427666 
	C490.262177,105.109810 490.920349,107.266754 490.592316,108.422913 
	C489.601379,111.915604 488.059479,115.251991 486.696625,118.740768 
	C483.724640,115.505821 481.057007,112.111206 477.897430,109.262115 
	C470.644775,102.722122 463.783203,102.689659 456.701996,109.367500 
	C453.104645,112.759956 450.083923,116.794777 447.036346,120.720726 
	C446.096039,121.932030 445.470062,123.744492 445.476593,125.278412 
	C445.542358,140.751617 445.579437,156.229874 446.048798,171.693848 
	C446.226166,177.537552 447.812256,183.120361 455.164551,184.533020 
	C443.885681,184.533020 432.606781,184.533020 421.327911,184.533020 
	C429.612732,183.107224 430.591492,176.454224 430.758820,170.218613 
	C431.169373,154.918869 431.193604,139.592026 430.748901,124.294220 
	C430.568756,118.097786 429.789886,111.246925 420.921936,110.041931 
	C429.783264,108.558754 438.223969,106.705429 445.167419,99.325668 
	C445.167419,105.360764 445.167419,110.556335 445.167419,116.925667 
	C446.717133,115.450821 447.427979,114.774307 448.409729,113.811417 
z"/>
<path fill="#FAF9F9" opacity="1.000000" stroke="none" 
	d="
M309.675171,184.276398 
	C308.350220,184.616821 307.420776,184.792114 305.807861,184.985535 
	C296.909027,184.148926 292.327576,180.417862 291.040985,172.255844 
	C290.094666,166.252533 290.235107,160.077911 289.975403,153.520630 
	C290.001648,146.672577 289.943787,140.283539 289.972107,133.439545 
	C290.058350,122.714905 290.058350,112.445221 290.058350,101.797638 
	C287.212891,101.797638 284.756989,101.895447 282.317078,101.741196 
	C281.530914,101.691498 280.786743,100.978233 280.023346,100.568535 
	C280.755554,99.955818 281.393280,99.088333 282.236694,98.775513 
	C285.482910,97.571556 289.175140,97.134384 291.994110,95.315575 
	C296.316162,92.526962 300.053925,88.832764 304.333740,85.278717 
	C304.333740,89.644615 304.333740,94.051056 304.333740,98.942490 
	C311.220795,98.942490 317.628967,98.942490 324.037170,98.942490 
	C324.130432,99.462234 324.223663,99.981972 324.316925,100.501717 
	C321.919830,103.010849 318.377136,101.520493 315.411713,101.738083 
	C311.854156,101.999123 308.262878,101.799744 304.596954,101.799744 
	C304.596954,118.960564 304.596954,135.396439 304.464539,152.269684 
	C304.378906,154.765991 304.425720,156.824936 304.434296,159.337616 
	C304.573700,163.397629 304.471588,167.044571 304.988342,170.601608 
	C306.006042,177.606918 310.041260,179.482986 316.774231,176.186829 
	C317.828003,175.450607 318.581665,174.762390 319.628418,173.937759 
	C320.814026,173.205841 321.706543,172.610336 322.599060,172.014832 
	C322.751007,172.245468 322.902924,172.476105 323.054871,172.706726 
	C322.311493,173.941422 321.568115,175.176117 320.543213,176.565125 
	C319.757416,177.401077 319.253082,178.082718 318.748749,178.764343 
	C315.856049,180.546646 312.963348,182.328949 309.675171,184.276398 
z"/>
<path fill="#B90236" opacity="1.000000" stroke="none" 
	d="
M318.930847,179.078217 
	C319.253082,178.082718 319.757416,177.401077 320.785034,176.852722 
	C326.665405,184.898758 332.022522,192.811493 337.624359,201.085678 
	C343.893005,194.370743 349.961914,187.869797 356.030792,181.368851 
	C356.891632,181.645401 357.752441,181.921951 358.860962,182.428360 
	C352.021057,190.346176 344.933472,198.034119 337.280121,206.335754 
	C331.080292,197.140808 325.096649,188.266434 318.930847,179.078217 
z"/>
<path fill="#B90136" opacity="1.000000" stroke="none" 
	d="
M382.817657,134.228241 
	C383.640594,134.181229 384.463501,134.134232 385.694031,134.157761 
	C379.525787,147.525894 372.949921,160.823517 366.077759,174.348160 
	C365.111786,174.295349 364.442078,174.015503 363.790680,173.143295 
	C370.145203,159.776718 376.481415,147.002472 382.817657,134.228241 
z"/>
<path fill="#B90539" opacity="1.000000" stroke="none" 
	d="
M107.906357,111.535583 
	C108.760353,112.810013 109.457512,114.423409 110.101974,116.811356 
	C108.567757,122.502892 112.159988,124.764343 115.122917,127.410927 
	C118.442314,130.375916 121.672897,133.440353 124.942123,136.461517 
	C124.178398,137.030914 123.414673,137.600311 122.371613,138.264832 
	C119.672470,135.926483 117.603584,132.926086 114.765076,131.168991 
	C107.161102,126.462021 104.838142,120.216202 107.906357,111.535583 
z"/>
<path fill="#F7F7F7" opacity="1.000000" stroke="none" 
	d="
M413.871826,152.951141 
	C414.131531,152.922150 414.377502,152.924393 414.623474,152.926636 
	C414.621704,152.812576 414.619934,152.698532 414.618195,152.584473 
	C414.378662,152.604767 414.139160,152.625061 413.844727,152.815460 
	C413.789856,152.985580 413.858063,152.982391 413.871826,152.951141 
z"/>
<path fill="#B80035" opacity="1.000000" stroke="none" 
	d="
M110.202034,177.255753 
	C110.455894,177.182007 110.717850,177.365326 110.990501,177.801605 
	C110.737518,177.873962 110.473824,177.693375 110.202034,177.255753 
z"/>
<path fill="#060606" opacity="1.000000" stroke="none" 
	d="
M60.201492,126.216156 
	C52.606331,131.301758 45.316170,136.193161 37.840305,141.209167 
	C37.840305,120.846825 37.840305,100.281479 37.840305,78.547852 
	C49.083710,79.331024 60.280396,79.126625 71.070152,81.122299 
	C83.377251,83.398621 88.402954,94.039513 82.399460,105.001068 
	C79.036316,111.141701 73.001648,115.882080 67.890190,120.971672 
	C65.812592,123.040382 62.990074,124.360977 60.201492,126.216156 
z"/>
<path fill="#030303" opacity="1.000000" stroke="none" 
	d="
M37.455399,153.134903 
	C36.557930,147.769867 38.720711,144.315948 42.654072,141.765671 
	C46.677315,139.157120 50.512196,136.077911 54.854576,134.174301 
	C70.024979,127.523857 84.247116,135.999023 85.901001,152.454514 
	C87.361031,166.981232 78.743187,183.399902 59.440529,182.146744 
	C52.343872,181.686005 45.192215,182.072418 37.455421,182.072418 
	C37.455421,172.394760 37.455421,163.004807 37.455399,153.134903 
z"/>
<path fill="#020101" opacity="1.000000" stroke="none" 
	d="
M355.783203,181.198120 
	C349.961914,187.869797 343.893005,194.370743 337.624359,201.085678 
	C332.022522,192.811493 326.665405,184.898758 321.066498,176.698410 
	C321.568115,175.176117 322.311493,173.941422 323.054871,172.706726 
	C322.902924,172.476105 322.751007,172.245468 322.599060,172.014832 
	C321.706543,172.610336 320.814026,173.205841 319.463562,173.617188 
	C314.202728,166.232803 309.399841,159.032562 304.596954,151.832306 
	C304.596954,135.396439 304.596954,118.960564 304.596954,101.799744 
	C308.262878,101.799744 311.854156,101.999123 315.411713,101.738083 
	C318.377136,101.520493 321.919830,103.010849 324.316925,100.501717 
	C324.223663,99.981972 324.130432,99.462234 324.037170,98.942490 
	C317.628967,98.942490 311.220795,98.942490 304.333740,98.942490 
	C304.333740,94.051056 304.333740,89.644615 304.333740,85.278717 
	C300.053925,88.832764 296.316162,92.526962 291.994110,95.315575 
	C289.175140,97.134384 285.482910,97.571556 282.236694,98.775513 
	C281.393280,99.088333 280.755554,99.955818 280.023346,100.568535 
	C280.786743,100.978233 281.530914,101.691498 282.317078,101.741196 
	C284.756989,101.895447 287.212891,101.797638 290.058350,101.797638 
	C290.058350,112.445221 290.058350,122.714905 289.614532,133.495132 
	C288.071594,135.542618 286.459045,136.931946 285.967010,138.643433 
	C284.308197,144.413559 286.709869,149.340363 289.891296,153.979630 
	C290.235107,160.077911 290.094666,166.252533 291.040985,172.255844 
	C292.327576,180.417862 296.909027,184.148926 305.518524,185.074341 
	C310.699982,194.450150 315.487366,203.755264 320.492218,213.483093 
	C305.124084,226.753098 286.648041,234.484909 268.603882,244.692841 
	C266.987640,236.001663 265.583954,227.920822 263.969177,219.882370 
	C260.728607,203.750854 257.374176,187.642227 254.060226,171.525482 
	C253.893127,170.712936 253.691116,169.905365 253.460693,169.108398 
	C251.385284,161.930206 248.956116,159.349258 244.829330,159.917999 
	C240.044800,160.577393 234.194336,167.461807 234.964569,172.748672 
	C236.400528,182.605103 238.710709,192.330582 240.381027,202.157486 
	C242.077377,212.137741 243.587036,222.155533 244.896835,232.193619 
	C245.733780,238.607834 246.059464,245.088760 246.670914,252.197128 
	C234.841782,256.097443 222.924515,260.026794 210.514481,264.118652 
	C208.329697,257.670715 206.191284,251.444504 204.110199,245.199188 
	C200.378265,233.999710 196.742966,222.767609 192.941544,211.591919 
	C191.165695,206.371201 189.223434,201.109283 183.903992,198.326340 
	C181.960876,197.309769 179.751419,196.802292 176.346558,195.596008 
	C180.364426,219.441757 184.159470,241.965134 188.042511,265.010803 
	C180.672348,265.375031 173.818100,263.851410 168.871780,259.120850 
	C160.018936,250.654129 151.231979,241.887589 143.865295,232.150955 
	C132.230942,216.773758 121.320511,200.759689 115.121368,181.720428 
	C123.129723,185.380081 131.575256,186.280197 140.175674,183.468063 
	C153.858139,178.994263 158.596237,167.767715 161.065155,154.973785 
	C161.220795,154.167313 161.275482,153.341660 161.406113,152.529602 
	C161.421997,152.430832 161.619370,152.361282 162.394699,151.792435 
	C163.302185,155.612823 163.783920,159.289352 165.065262,162.662064 
	C167.167908,168.196564 169.096786,174.001251 172.361237,178.840454 
	C176.818192,185.447449 186.260681,186.861252 192.363754,182.968307 
	C194.040161,181.898972 195.815002,180.983902 196.966934,178.979584 
	C188.331528,180.486298 184.801270,175.382187 183.033676,169.636429 
	C179.826538,159.211334 177.587753,148.486328 175.005539,137.871735 
	C173.399338,131.269196 172.324844,124.505859 170.271164,118.050285 
	C166.209930,105.284180 158.672241,99.799850 145.301987,99.027573 
	C134.565277,98.407425 124.080154,99.779182 113.443588,102.989120 
	C115.284859,96.197281 117.458305,89.396240 119.749413,82.635078 
	C122.391891,74.836990 126.831474,68.725113 134.315430,64.495720 
	C141.676773,60.335625 148.379669,55.010395 155.869583,49.853489 
	C160.982208,58.647354 165.995224,67.221771 170.956879,75.825783 
	C173.201645,79.718430 175.217773,83.747437 177.562805,87.576683 
	C181.165939,93.460312 186.849594,95.450729 191.948166,92.846817 
	C196.890518,90.322685 198.906281,84.883194 196.180679,78.663582 
	C191.509750,68.004829 186.407333,57.525589 181.178207,47.125782 
	C179.102997,42.998554 180.101227,41.207306 184.321716,40.001202 
	C191.669891,37.901287 198.922043,35.465351 206.819122,32.979977 
	C209.597595,40.625275 212.327805,48.055168 214.997208,55.506836 
	C217.521515,62.553490 219.856262,69.670944 222.521484,76.663078 
	C223.938873,80.381577 225.495239,84.546867 230.760406,83.735077 
	C234.412033,83.172058 237.161224,77.806465 236.456085,72.685326 
	C235.254120,63.956131 233.720108,55.272388 232.539047,46.540680 
	C231.759033,40.773964 231.416016,34.949413 230.749725,29.165462 
	C230.450287,26.566122 231.066544,25.324442 233.977936,24.854305 
	C247.400299,22.686840 260.493835,23.561914 273.365387,28.065491 
	C276.301453,29.092768 277.573181,30.403316 277.161407,33.783329 
	C275.393280,48.298275 276.281921,62.699665 280.008942,76.860542 
	C280.719696,79.561028 281.898987,82.187759 283.227020,84.651840 
	C283.759918,85.640602 285.505768,86.855659 286.292145,86.618271 
	C287.426880,86.275711 288.812225,84.806465 289.004883,83.638847 
	C289.841888,78.565582 290.620209,73.438782 290.795227,68.310127 
	C291.078522,60.009804 290.871490,51.692745 290.871490,41.537041 
	C305.283997,51.681545 318.542938,61.136719 331.932007,70.403961 
	C345.483521,79.783676 359.163788,88.977402 373.020203,98.506683 
	C346.480377,100.865273 329.049713,120.030655 331.052612,145.989822 
	C332.302551,162.189804 341.229553,173.639694 355.783203,181.198120 
M203.942520,108.122147 
	C205.150543,105.328011 207.702072,102.560295 204.521530,99.546745 
	C201.005905,96.215698 191.520584,96.443253 187.652679,99.836182 
	C183.832092,103.187599 184.096558,106.302467 188.720856,112.417427 
	C193.440063,118.657883 197.403351,118.277443 202.172989,111.025520 
	C209.458237,112.426056 209.710785,118.597961 209.859711,123.820465 
	C210.295959,139.119156 210.245453,154.441299 209.962051,169.746414 
	C209.841843,176.238190 208.935898,182.884811 200.592560,184.575165 
	C211.930084,184.575165 223.267609,184.575165 233.963959,184.575165 
	C231.767441,182.843857 228.726303,181.424835 227.278214,179.038940 
	C225.733612,176.494019 225.146774,173.045349 225.090912,169.973953 
	C224.818436,154.997116 224.828918,140.014450 224.853256,125.034035 
	C224.855515,123.644035 225.295044,121.953575 226.153488,120.918327 
	C229.851776,116.458221 233.447235,111.821831 237.713547,107.947021 
	C242.916702,103.221375 248.931595,103.159286 254.599030,107.343758 
	C258.845520,110.479111 262.699463,114.146149 266.460449,117.348511 
	C267.171387,115.559418 268.334259,112.282341 269.771362,109.130295 
	C270.872223,106.715752 270.222931,105.358635 268.091125,103.878868 
	C258.008881,96.880470 246.352066,97.203339 236.266632,105.260399 
	C232.307632,108.423164 228.740250,112.076149 224.841156,115.646317 
	C224.841156,110.680847 224.841156,105.376717 224.841156,99.253746 
	C218.322021,105.172173 211.668381,108.527023 203.942520,108.122147 
z"/>
<path fill="#030303" opacity="1.000000" stroke="none" 
	d="
M149.602097,123.361115 
	C150.587967,119.385818 151.378082,115.745041 152.168182,112.104256 
	C152.539841,111.988487 152.911484,111.872711 153.283127,111.756935 
	C155.013947,117.353691 157.344620,122.845474 158.346298,128.569824 
	C160.227737,139.321976 159.827606,150.120865 156.062943,160.530762 
	C153.480362,167.672012 149.082306,173.362198 141.754913,176.182144 
	C135.950699,178.415909 130.248047,178.156189 125.355843,174.004181 
	C120.287170,169.702423 119.532402,163.620300 121.619263,158.028427 
	C123.468414,153.073517 126.863968,148.525772 130.280197,144.377472 
	C133.203720,140.827499 137.373566,138.331131 140.534943,134.942230 
	C143.780838,131.462738 146.472260,127.465996 149.602097,123.361115 
z"/>
<path fill="#030303" opacity="1.000000" stroke="none" 
	d="
M125.277832,136.301819 
	C121.672897,133.440353 118.442314,130.375916 115.122917,127.410927 
	C112.159988,124.764343 108.567757,122.502892 110.103485,117.155960 
	C110.620010,117.380585 111.082336,118.035164 111.363983,118.433922 
	C115.708755,114.616211 119.662582,110.155914 124.522499,107.170769 
	C128.723785,104.590164 133.882584,102.630547 138.747833,102.298851 
	C145.281174,101.853424 148.726715,107.375938 147.289337,113.866631 
	C145.867371,120.287659 141.694275,124.730644 136.704834,128.502151 
	C133.127029,131.206619 129.318909,133.606415 125.277832,136.301819 
z"/>
<path fill="#020202" opacity="1.000000" stroke="none" 
	d="
M384.476532,130.894562 
	C371.070343,130.894562 357.664124,130.894562 344.266388,130.894562 
	C343.355591,119.107040 350.769257,107.298096 361.122314,103.933495 
	C371.820221,100.456833 382.993500,105.485535 389.731323,117.514053 
	C387.839966,122.381065 386.158234,126.637817 384.476532,130.894562 
z"/>
<path fill="#030203" opacity="1.000000" stroke="none" 
	d="
M382.367493,134.154251 
	C376.481415,147.002472 370.145203,159.776718 363.574707,172.850037 
	C349.591309,163.940323 344.576630,150.292725 343.414307,134.080261 
	C356.446167,134.080261 369.181763,134.080261 382.367493,134.154251 
z"/>
<path fill="#B70236" opacity="1.000000" stroke="none" 
	d="
M384.898346,130.987274 
	C386.158234,126.637817 387.839966,122.381065 389.777161,117.839279 
	C390.679291,118.680832 391.325867,119.807434 391.681580,121.502350 
	C390.218872,125.024796 389.047058,127.978928 387.875275,130.933075 
	C387.023560,130.982040 386.171875,131.031006 384.898346,130.987274 
z"/>
<path fill="#0E0608" opacity="1.000000" stroke="none" 
	d="
M388.329803,131.028259 
	C389.047058,127.978928 390.218872,125.024796 391.672394,121.825317 
	C392.856354,124.537468 393.758575,127.494965 394.865509,131.123459 
	C392.339020,131.123459 390.561676,131.123459 388.329803,131.028259 
z"/>
<path fill="#080304" opacity="1.000000" stroke="none" 
	d="
M316.474091,176.234848 
	C310.041260,179.482986 306.006042,177.606918 304.988342,170.601608 
	C304.471588,167.044571 304.573700,163.397629 304.702026,159.530853 
	C308.830017,164.925201 312.652039,170.580017 316.474091,176.234848 
z"/>
<path fill="#9B3653" opacity="1.000000" stroke="none" 
	d="
M316.774231,176.186829 
	C312.652039,170.580017 308.830017,164.925201 304.740234,159.077133 
	C304.425720,156.824936 304.378906,154.765991 304.464539,152.269669 
	C309.399841,159.032562 314.202728,166.232803 319.170471,173.753601 
	C318.581665,174.762390 317.828003,175.450607 316.774231,176.186829 
z"/>
<path fill="#B00032" opacity="1.000000" stroke="none" 
	d="
M289.975403,153.520630 
	C286.709869,149.340363 284.308197,144.413559 285.967010,138.643433 
	C286.459045,136.931946 288.071594,135.542618 289.528320,133.950073 
	C289.943787,140.283539 290.001648,146.672577 289.975403,153.520630 
z"/>
<path fill="#F5F5F5" opacity="1.000000" stroke="none" 
	d="
M203.720764,108.838882 
	C211.668381,108.527023 218.322021,105.172173 224.841156,99.253746 
	C224.841156,105.376717 224.841156,110.680847 224.841156,115.646317 
	C228.740250,112.076149 232.307632,108.423164 236.266632,105.260399 
	C246.352066,97.203339 258.008881,96.880470 268.091125,103.878868 
	C270.222931,105.358635 270.872223,106.715752 269.771362,109.130295 
	C268.334259,112.282341 267.171387,115.559418 266.460449,117.348511 
	C262.699463,114.146149 258.845520,110.479111 254.599030,107.343758 
	C248.931595,103.159286 242.916702,103.221375 237.713547,107.947021 
	C233.447235,111.821831 229.851776,116.458221 226.153488,120.918327 
	C225.295044,121.953575 224.855515,123.644035 224.853256,125.034035 
	C224.828918,140.014450 224.818436,154.997116 225.090912,169.973953 
	C225.146774,173.045349 225.733612,176.494019 227.278214,179.038940 
	C228.726303,181.424835 231.767441,182.843857 233.963959,184.575165 
	C223.267609,184.575165 211.930084,184.575165 200.592560,184.575165 
	C208.935898,182.884811 209.841843,176.238190 209.962051,169.746414 
	C210.245453,154.441299 210.295959,139.119156 209.859711,123.820465 
	C209.710785,118.597961 209.458237,112.426056 201.686829,110.811356 
	C202.040680,110.011093 202.880722,109.424988 203.720764,108.838882 
z"/>
<path fill="#B70034" opacity="1.000000" stroke="none" 
	d="
M203.831635,108.480515 
	C202.880722,109.424988 202.040680,110.011093 201.345490,110.894424 
	C197.403351,118.277443 193.440063,118.657883 188.720856,112.417427 
	C184.096558,106.302467 183.832092,103.187599 187.652679,99.836182 
	C191.520584,96.443253 201.005905,96.215698 204.521530,99.546745 
	C207.702072,102.560295 205.150543,105.328011 203.831635,108.480515 
M201.144897,106.598000 
	C201.796143,105.204308 202.447372,103.810608 203.843948,100.821854 
	C199.212708,100.821854 195.797546,100.318985 192.602386,100.942841 
	C188.107895,101.820389 187.442093,104.048050 189.742462,108.032867 
	C193.602203,114.718918 195.907700,114.827042 200.009598,108.513382 
	C200.279602,108.097794 200.541687,107.677055 201.144897,106.598000 
z"/>
<path fill="#090003" opacity="1.000000" stroke="none" 
	d="
M200.976181,106.928352 
	C200.541687,107.677055 200.279602,108.097794 200.009598,108.513382 
	C195.907700,114.827042 193.602203,114.718918 189.742462,108.032867 
	C187.442093,104.048050 188.107895,101.820389 192.602386,100.942841 
	C195.797546,100.318985 199.212708,100.821854 203.843948,100.821854 
	C202.447372,103.810608 201.796143,105.204308 200.976181,106.928352 
z"/>
</svg>